<svg width="97" height="85" viewBox="0 0 97 85" fill="none" xmlns="http://www.w3.org/2000/svg">
<path d="M38.4076 54.7866H25.7762L23.1955 62.8468C23.1277 63.1542 22.8561 63.3592 22.5505 63.3252H16.1667C15.7933 63.3252 15.6914 63.1203 15.7933 62.7104L26.7267 31.1861C26.8286 30.8447 26.9305 30.5374 27.0664 30.1275C27.2023 29.4103 27.2701 28.6588 27.2701 27.9073C27.2364 27.7366 27.372 27.566 27.5417 27.5317H36.3362C36.574 27.5317 36.7437 27.6342 36.7778 27.8048L49.1714 62.6419C49.2733 63.0178 49.1714 63.1885 48.8321 63.1885H41.7352C41.4977 63.2227 41.2599 63.0518 41.1921 62.8129L38.4076 54.6159V54.7866ZM27.7457 47.9898H36.3703C36.1666 47.2726 35.8947 46.419 35.5891 45.5308C35.2835 44.6086 34.9779 43.6182 34.6723 42.5936C34.333 41.5347 34.0274 40.5101 33.6877 39.4516C33.3481 38.3927 33.0428 37.4023 32.7709 36.4116C32.4994 35.4555 32.2616 34.5673 32.0238 33.7476H31.956C31.6504 35.2163 31.277 36.6851 30.8014 38.1535C30.2921 39.7929 29.7827 41.5008 29.2397 43.2084C28.7981 44.9502 28.2551 46.5554 27.7457 47.9898ZM69.1713 51.7127H58.4075C58.5431 52.7716 58.8828 53.8302 59.4599 54.7523C60.0711 55.6745 60.9201 56.3917 61.9388 56.8016C63.2971 57.3824 64.791 57.6898 66.2849 57.6555C67.4736 57.6213 68.6619 57.5188 69.8165 57.2799C70.852 57.1435 71.8669 56.8796 72.8385 56.4942C73.0081 56.3578 73.11 56.426 73.11 56.7676V61.9932C73.11 62.1296 73.0762 62.2663 73.0422 62.403C72.9744 62.5055 72.9063 62.5737 72.8044 62.6419C71.7185 63.1217 70.5782 63.4658 69.4091 63.6665C67.8207 63.9738 66.2044 64.1112 64.5873 64.0764C62.0066 64.0764 59.8336 63.6665 58.0678 62.8811C56.4039 62.1639 54.944 61.0368 53.7895 59.6366C52.7144 58.3207 51.9172 56.7983 51.4465 55.1622C50.9713 53.5571 50.7335 51.8834 50.7335 50.1758C50.7335 48.3315 51.005 46.5214 51.5825 44.7453C52.1238 43.0352 52.9885 41.4464 54.1291 40.0663C55.2496 38.7001 56.6417 37.6072 58.2375 36.8215C59.8336 36.036 61.735 35.7629 63.9083 35.7629C65.7078 35.7287 67.5073 36.0703 69.1713 36.8215C70.5633 37.4363 71.7857 38.3584 72.7366 39.554C73.6193 40.715 74.3324 42.0131 74.7739 43.4476C75.2154 44.8135 75.4192 46.214 75.4192 47.6143C75.4192 48.434 75.3851 49.1512 75.3511 49.8002C75.2832 50.4489 75.2492 50.9273 75.2154 51.2347C75.1814 51.4735 74.9776 51.6785 74.7398 51.6785C74.5361 51.6785 74.1627 51.7127 73.6193 51.747C73.0762 51.8152 72.431 51.8495 71.6501 51.8495C70.8689 51.8495 70.054 51.7127 69.1713 51.7127ZM58.4075 46.7264H65.5719C66.4549 46.7264 67.0999 46.7264 67.5073 46.6921C67.7792 46.6578 68.0507 46.5896 68.2885 46.419V46.0773C68.2898 45.6477 68.221 45.2207 68.0848 44.8135C67.4736 42.901 65.6737 41.6033 63.6705 41.6715C62.7489 41.6195 61.8321 41.837 61.0308 42.2976C60.2294 42.7582 59.5777 43.4423 59.1543 44.2673C58.7468 45.0527 58.5094 45.8724 58.4075 46.7264Z" fill="white"/>
<path d="M69.1035 5.15643L91.9277 44.6906L69.1035 84.2248H23.4531L0.626953 44.6906L23.4531 5.15643H69.1035Z" stroke="white"/>
<path d="M80.236 34.6825L84.8208 34.6825L85.7358 36.2685H81.1368L80.236 34.6825Z" fill="url(#paint0_linear_283_1770)"/>
<path d="M79.0352 32.5682L83.601 32.5682L84.5138 34.1504H79.9572L79.0352 32.5682Z" fill="url(#paint1_linear_283_1770)"/>
<path d="M77.8182 30.4254L82.3648 30.4254L83.2858 32.0218H78.7249L77.8182 30.4254Z" fill="url(#paint2_linear_283_1770)"/>
<path d="M76.6092 28.2968L81.1368 28.2968L82.0578 29.8932L77.5159 29.8932L76.6092 28.2968Z" fill="url(#paint3_linear_283_1770)"/>
<path d="M86.568 26.9174L71.2192 1.89776e-06L49.5113 0V3.74151L36.2808 3.74151L36.72 2.67722L32.1333 2.67722L30.5381 6.93436L35.3237 6.93436L35.8469 5.5295L49.5113 5.5295V7.36689L66.1327 7.36689L77.5244 26.9174H81.1368L90.0249 41.9755H88.9614L90.2908 44.6362H96.6716L95.0764 41.9755H91.7541L82.9933 26.9174H86.568Z" fill="url(#paint4_linear_283_1770)"/>
<defs>
<linearGradient id="paint0_linear_283_1770" x1="126.356" y1="-20.4755" x2="126.356" y2="68.5787" gradientUnits="userSpaceOnUse">
<stop stop-color="#FF1CF7"/>
<stop offset="1" stop-color="#00F0FF"/>
</linearGradient>
<linearGradient id="paint1_linear_283_1770" x1="126.356" y1="-20.4755" x2="126.356" y2="68.5787" gradientUnits="userSpaceOnUse">
<stop stop-color="#FF1CF7"/>
<stop offset="1" stop-color="#00F0FF"/>
</linearGradient>
<linearGradient id="paint2_linear_283_1770" x1="126.356" y1="-20.4755" x2="126.356" y2="68.5787" gradientUnits="userSpaceOnUse">
<stop stop-color="#FF1CF7"/>
<stop offset="1" stop-color="#00F0FF"/>
</linearGradient>
<linearGradient id="paint3_linear_283_1770" x1="126.356" y1="-20.4755" x2="126.356" y2="68.5787" gradientUnits="userSpaceOnUse">
<stop stop-color="#FF1CF7"/>
<stop offset="1" stop-color="#00F0FF"/>
</linearGradient>
<linearGradient id="paint4_linear_283_1770" x1="126.356" y1="-20.4755" x2="126.356" y2="68.5787" gradientUnits="userSpaceOnUse">
<stop stop-color="#FF1CF7"/>
<stop offset="1" stop-color="#00F0FF"/>
</linearGradient>
</defs>
</svg>
