<svg width="102" height="90" viewBox="0 0 102 90" fill="none" xmlns="http://www.w3.org/2000/svg">
<path d="M73.6575 4.71933L96.4817 44.2535L73.6575 83.7877H28.0071L5.18091 44.2535L28.0071 4.71933H73.6575Z" stroke="white"/>
<path d="M4.73494 33.8962L9.31967 33.8962L10.2346 32.3102L5.63572 32.3102L4.73494 33.8962Z" fill="url(#paint0_linear_283_1756)"/>
<path d="M3.53412 36.0105L8.09993 36.0105L9.01267 34.4284L4.43271 34.4284L3.53412 36.0105Z" fill="url(#paint1_linear_283_1756)"/>
<path d="M2.31706 38.1534L6.8637 38.1534L7.78468 36.557L3.22377 36.557L2.31706 38.1534Z" fill="url(#paint2_linear_283_1756)"/>
<path d="M1.10813 40.282L5.63572 40.282L6.55671 38.6855L2.01484 38.6855L1.10813 40.282Z" fill="url(#paint3_linear_283_1756)"/>
<path d="M76.0415 89.0543L26.2006 89.0543L20.7156 78.4824L19.8263 71.0187L16.223 64.899L19.0271 75.5557L0.216496 44.7932L2.02333 41.6613L5.79419 41.5159L14.4347 26.4462L13.3712 26.4462L14.7005 23.7855L21.0814 23.7855L19.4861 26.4462L16.1639 26.4462L7.49218 41.4659L9.96582 41.4273L8.20514 44.4792L16.986 59.8575L23.4931 59.8575L21.8979 64.6467L20.5686 62.7842L17.2865 63.3026L20.4769 68.8901L22.2455 68.3717L29.1155 81.5915L71.4868 81.5915L92.6723 44.6362L70.955 7.3669L54.3337 7.3669L54.3337 5.52952L40.6693 5.52952L40.146 6.93437L35.3604 6.93437L36.9556 2.67723L41.5423 2.67723L41.1031 3.74153L54.3337 3.74153L54.3337 1.87653e-05L76.0416 2.06631e-05L101.494 44.6362L76.0415 89.0543Z" fill="url(#paint4_linear_283_1756)"/>
<path d="M51.2869 56.1916H38.6555L36.0748 64.2179C36.007 64.5252 35.7354 64.7302 35.4298 64.6959H29.046C28.6726 64.6959 28.5707 64.491 28.6726 64.0811L39.6063 32.4204C39.7082 32.079 39.8101 31.7031 39.9457 31.2933C40.0816 30.576 40.1494 29.8249 40.1494 29.0734C40.1157 28.9027 40.2513 28.7317 40.4213 28.6978H49.2155C49.4874 28.6978 49.623 28.8002 49.657 28.9709L62.0507 64.1497C62.1525 64.5252 62.0507 64.6959 61.7113 64.6959H54.6144C54.377 64.7302 54.1392 64.5595 54.0714 64.3203L51.2869 56.1916ZM40.625 49.2584H49.2496C49.0458 48.5412 48.7743 47.6872 48.4687 46.7993C48.1631 45.8772 47.8575 44.8868 47.5519 43.8622C47.2122 42.8033 46.9067 41.7787 46.567 40.7198C46.2276 39.6612 45.9221 38.6705 45.6502 37.6802C45.3787 36.7241 45.1409 35.8359 44.9034 35.0162H44.8353C44.5297 36.4849 44.1563 37.9536 43.681 39.422C43.1717 41.0614 42.6623 42.769 42.1189 44.4769C41.6804 46.0889 41.1821 47.6839 40.625 49.2584ZM69.6228 34.6745C68.5023 34.7088 67.4158 34.2647 66.6009 33.4792C65.82 32.6253 65.4126 31.4982 65.4463 30.3372C65.4126 29.1758 65.8538 28.083 66.6687 27.2973C67.4837 26.5118 68.5704 26.102 69.691 26.102C71.0152 26.102 72.0339 26.5118 72.7807 27.2973C73.5332 28.1253 73.9352 29.2158 73.9012 30.3372C73.9353 31.4982 73.5278 32.6253 72.7129 33.4792C71.932 34.2989 70.7774 34.743 69.6228 34.6745ZM65.82 64.3203V38.0218C65.82 37.6802 65.9557 37.5435 66.2613 37.5435H72.9844C73.29 37.5435 73.426 37.7144 73.426 38.0218V64.3203C73.426 64.6959 73.29 64.8669 72.9844 64.8669H66.3294C65.9897 64.8669 65.82 64.662 65.82 64.3203Z" fill="white"/>
<defs>
<linearGradient id="paint0_linear_283_1756" x1="50.8552" y1="89.0543" x2="50.8552" y2="1.08318e-05" gradientUnits="userSpaceOnUse">
<stop stop-color="#FF1CF7"/>
<stop offset="1" stop-color="#00F0FF"/>
</linearGradient>
<linearGradient id="paint1_linear_283_1756" x1="50.8552" y1="89.0543" x2="50.8552" y2="1.08318e-05" gradientUnits="userSpaceOnUse">
<stop stop-color="#FF1CF7"/>
<stop offset="1" stop-color="#00F0FF"/>
</linearGradient>
<linearGradient id="paint2_linear_283_1756" x1="50.8552" y1="89.0543" x2="50.8552" y2="1.08318e-05" gradientUnits="userSpaceOnUse">
<stop stop-color="#FF1CF7"/>
<stop offset="1" stop-color="#00F0FF"/>
</linearGradient>
<linearGradient id="paint3_linear_283_1756" x1="50.8552" y1="89.0543" x2="50.8552" y2="1.08318e-05" gradientUnits="userSpaceOnUse">
<stop stop-color="#FF1CF7"/>
<stop offset="1" stop-color="#00F0FF"/>
</linearGradient>
<linearGradient id="paint4_linear_283_1756" x1="50.8552" y1="89.0543" x2="50.8552" y2="1.08318e-05" gradientUnits="userSpaceOnUse">
<stop stop-color="#FF1CF7"/>
<stop offset="1" stop-color="#00F0FF"/>
</linearGradient>
</defs>
</svg>
