<svg width="97" height="86" viewBox="0 0 97 86" fill="none" xmlns="http://www.w3.org/2000/svg">
<path d="M47.2346 49.0304C47.3425 47.1822 48.262 45.5512 49.6507 44.3961C51.1077 43.2042 52.9454 42.5578 54.8394 42.571C56.8333 42.571 58.6653 43.2641 60.0258 44.3961C61.4144 45.5512 62.3316 47.1822 62.4371 49.0281C62.5427 50.9295 61.7686 52.6922 60.4081 54.0021C58.9096 55.4116 56.9115 56.1892 54.8394 56.1691C52.7659 56.1894 50.7663 55.4119 49.266 54.0021C47.9055 52.6922 47.1291 50.9295 47.2346 49.0304ZM35.1308 52.7661C35.1449 53.4915 35.3794 54.8962 35.7313 55.9958C36.4909 58.3617 37.7662 60.5355 39.468 62.3652C41.2931 64.3415 43.5207 65.9167 46.0055 66.988C48.7098 68.1621 51.6354 68.7604 54.5908 68.7438C57.5457 68.7495 60.4686 68.1418 63.169 66.9603C65.652 65.8788 67.8774 64.297 69.7018 62.3167C71.4008 60.481 72.6749 58.3039 73.4362 55.9358C74.1681 53.6415 74.3685 51.2147 74.0226 48.8341C73.6932 46.5533 72.8813 44.3661 71.6394 42.4139C70.4888 40.5979 69.0175 38.9994 67.2951 37.6941H67.2998L49.7117 24.394L49.6648 24.3593C48.5107 23.486 46.5708 23.4907 45.3018 24.3639C44.0187 25.2464 43.8732 26.7088 45.0132 27.6329L45.0109 27.6352L52.3436 33.5102L29.989 33.5333H29.9585C28.1101 33.5356 26.3344 34.73 25.9825 36.2409C25.6213 37.7772 26.8739 39.0525 28.7974 39.0594V39.064L40.1271 39.0409L19.9072 54.3278L19.8274 54.3856C17.9203 55.8226 17.3058 58.216 18.5068 59.7292C19.7265 61.2701 22.3185 61.2724 24.2467 59.7384L35.2809 50.8463C35.2809 50.8463 35.1167 52.0476 35.1308 52.7661ZM63.4904 56.7883C61.215 59.0708 58.0343 60.3645 54.5884 60.3691C51.1402 60.3784 47.9571 59.0939 45.6818 56.816C44.6074 55.7537 43.7785 54.4755 43.2516 53.0688C42.7688 51.7452 42.578 50.3355 42.6921 48.9336C42.8062 47.5317 43.2224 46.1699 43.9131 44.939C44.6002 43.7223 45.5184 42.647 46.6177 41.7716C48.8274 39.9974 51.6399 39.0386 54.5837 39.034C57.5299 39.0294 60.3424 39.9812 62.5544 41.7485C63.6804 42.6519 64.5952 43.7215 65.2567 44.9067C65.9414 46.1211 66.3586 47.4641 66.4811 48.8479C66.6054 50.2661 66.4141 51.6939 65.9205 53.0318C65.3936 54.4407 64.5633 55.7217 63.4904 56.7883Z" fill="white"/>
<path d="M69.126 5.64124L91.9502 45.1754L69.126 84.7096H23.4756L0.649414 45.1754L23.4756 5.64124H69.126Z" stroke="white"/>
<path d="M80.2363 35.4345L84.821 35.4344L85.736 37.0205H81.1371L80.2363 35.4345Z" fill="url(#paint0_linear_283_1798)"/>
<path d="M79.0355 33.3202L83.6013 33.3202L84.514 34.9023H79.9574L79.0355 33.3202Z" fill="url(#paint1_linear_283_1798)"/>
<path d="M77.8184 31.1773L82.3651 31.1773L83.286 32.7737H78.7251L77.8184 31.1773Z" fill="url(#paint2_linear_283_1798)"/>
<path d="M76.6095 29.0487L81.1371 29.0487L82.0581 30.6452L77.5162 30.6452L76.6095 29.0487Z" fill="url(#paint3_linear_283_1798)"/>
<path d="M86.5683 27.6694L71.2195 0.751955L49.5116 0.751953V4.49346L36.2811 4.49346L36.7202 3.42917L32.1335 3.42917L30.5383 7.68631L35.3239 7.68631L35.8472 6.28146L49.5116 6.28146V8.11884L66.1329 8.11884L77.5247 27.6694H81.1371L90.0251 42.7274H88.9617L90.291 45.3882H96.6718L95.0766 42.7274H91.7544L82.9935 27.6694H86.5683Z" fill="url(#paint4_linear_283_1798)"/>
<defs>
<linearGradient id="paint0_linear_283_1798" x1="126.357" y1="-19.7236" x2="126.357" y2="69.3307" gradientUnits="userSpaceOnUse">
<stop stop-color="#FF1CF7"/>
<stop offset="1" stop-color="#00F0FF"/>
</linearGradient>
<linearGradient id="paint1_linear_283_1798" x1="126.357" y1="-19.7236" x2="126.357" y2="69.3307" gradientUnits="userSpaceOnUse">
<stop stop-color="#FF1CF7"/>
<stop offset="1" stop-color="#00F0FF"/>
</linearGradient>
<linearGradient id="paint2_linear_283_1798" x1="126.357" y1="-19.7236" x2="126.357" y2="69.3307" gradientUnits="userSpaceOnUse">
<stop stop-color="#FF1CF7"/>
<stop offset="1" stop-color="#00F0FF"/>
</linearGradient>
<linearGradient id="paint3_linear_283_1798" x1="126.357" y1="-19.7236" x2="126.357" y2="69.3307" gradientUnits="userSpaceOnUse">
<stop stop-color="#FF1CF7"/>
<stop offset="1" stop-color="#00F0FF"/>
</linearGradient>
<linearGradient id="paint4_linear_283_1798" x1="126.357" y1="-19.7236" x2="126.357" y2="69.3307" gradientUnits="userSpaceOnUse">
<stop stop-color="#FF1CF7"/>
<stop offset="1" stop-color="#00F0FF"/>
</linearGradient>
</defs>
</svg>
