<svg width="102" height="90" viewBox="0 0 102 90" fill="none" xmlns="http://www.w3.org/2000/svg">
<path d="M74.1636 5.64127L96.9878 45.1754L74.1636 84.7096H28.5132L5.68701 45.1754L28.5132 5.64127H74.1636Z" stroke="white"/>
<path d="M12.3381 22.5506L16.9228 22.5506L17.8378 20.9646L13.2388 20.9646L12.3381 22.5506Z" fill="url(#paint0_linear_283_1804)"/>
<path d="M11.1372 24.6649L15.703 24.6649L16.6158 23.0827L12.0358 23.0827L11.1372 24.6649Z" fill="url(#paint1_linear_283_1804)"/>
<path d="M9.92018 26.8077L14.4668 26.8077L15.3878 25.2113L10.8269 25.2113L9.92018 26.8077Z" fill="url(#paint2_linear_283_1804)"/>
<path d="M8.71125 28.9363L13.2388 28.9363L14.1598 27.3399L9.61796 27.3399L8.71125 28.9363Z" fill="url(#paint3_linear_283_1804)"/>
<path d="M76.5477 89.9762L26.7067 89.9762L21.2217 79.4044L20.3324 71.9406L16.7291 65.821L19.5332 76.4776L0.722599 45.7151L9.62645 30.3157L13.3973 30.1702L22.0378 15.1006L20.9743 15.1006L22.3036 12.4399L28.6845 12.4399L27.0893 15.1006L23.767 15.1006L15.0953 30.1202L17.5689 30.0816L8.71125 45.4011L17.4921 60.7794L23.9992 60.7794L22.404 65.5687L21.0747 63.7062L17.7926 64.2245L20.983 69.812L22.7516 69.2937L29.6216 82.5134L71.9929 82.5134L93.1784 45.5581L71.4611 8.28882L54.8398 8.28882L54.8398 6.45144L41.1754 6.45144L40.6521 7.85629L35.8665 7.85629L37.4617 3.59915L42.0484 3.59915L41.6092 4.66345L54.8398 4.66345L54.8398 0.92194L76.5477 0.921941L102 45.5581L76.5477 89.9762Z" fill="url(#paint4_linear_283_1804)"/>
<path d="M64.3202 35.9092C62.9126 37.3243 61.0034 38.1193 59.0127 38.1193H51.5068V43.3781C52.4689 40.4648 55.22 38.3618 58.4637 38.3618C62.508 38.3618 65.7865 41.6311 65.7865 45.664C65.7865 49.697 62.508 52.9663 58.4637 52.9663C55.22 52.9663 52.4689 50.8632 51.5068 47.9499V60.7562C51.5068 62.2486 51.0665 63.7075 50.2418 64.9484C49.417 66.1892 48.2447 67.1564 46.8732 67.7275C45.5017 68.2986 43.9925 68.448 42.5365 68.1569C41.0805 67.8657 39.743 67.1471 38.6933 66.0918C37.6436 65.0365 36.9287 63.692 36.6391 62.2283C36.3495 60.7646 36.4981 59.2474 37.0662 57.8686C37.6343 56.4898 38.5964 55.3114 39.8307 54.4822C41.0651 53.6531 42.5163 53.2106 44.0008 53.2106C42.0101 53.2106 40.101 52.4156 38.6933 51.0005C37.2857 49.5854 36.4949 47.6661 36.4949 45.6649C36.4949 43.6637 37.2857 41.7444 38.6933 40.3293C40.101 38.9142 42.0101 38.1193 44.0008 38.1193C42.0101 38.1193 40.101 37.3243 38.6933 35.9092C37.2857 34.4941 36.4949 32.5748 36.4949 30.5736C36.4949 28.5724 37.2857 26.6531 38.6933 25.238C40.101 23.8229 42.0101 23.028 44.0008 23.028H59.0127C61.0034 23.028 62.9126 23.8229 64.3202 25.238C65.7278 26.6531 66.5186 28.5724 66.5186 30.5736C66.5186 32.5748 65.7278 34.4941 64.3202 35.9092Z" fill="white"/>
<defs>
<linearGradient id="paint0_linear_283_1804" x1="51.3613" y1="89.9762" x2="51.3613" y2="0.921932" gradientUnits="userSpaceOnUse">
<stop stop-color="#FF1CF7"/>
<stop offset="1" stop-color="#00F0FF"/>
</linearGradient>
<linearGradient id="paint1_linear_283_1804" x1="51.3613" y1="89.9762" x2="51.3613" y2="0.921932" gradientUnits="userSpaceOnUse">
<stop stop-color="#FF1CF7"/>
<stop offset="1" stop-color="#00F0FF"/>
</linearGradient>
<linearGradient id="paint2_linear_283_1804" x1="51.3613" y1="89.9762" x2="51.3613" y2="0.921932" gradientUnits="userSpaceOnUse">
<stop stop-color="#FF1CF7"/>
<stop offset="1" stop-color="#00F0FF"/>
</linearGradient>
<linearGradient id="paint3_linear_283_1804" x1="51.3613" y1="89.9762" x2="51.3613" y2="0.921932" gradientUnits="userSpaceOnUse">
<stop stop-color="#FF1CF7"/>
<stop offset="1" stop-color="#00F0FF"/>
</linearGradient>
<linearGradient id="paint4_linear_283_1804" x1="51.3613" y1="89.9762" x2="51.3613" y2="0.921932" gradientUnits="userSpaceOnUse">
<stop stop-color="#FF1CF7"/>
<stop offset="1" stop-color="#00F0FF"/>
</linearGradient>
</defs>
</svg>
