<svg width="97" height="91" viewBox="0 0 97 91" fill="none" xmlns="http://www.w3.org/2000/svg">
<path d="M26.4465 28.7662H33.0884C33.2928 28.7313 33.4972 28.871 33.5312 29.1156C33.5653 29.1505 33.5653 29.1854 33.5653 29.2204V65.0631C33.5653 65.4474 33.395 65.6221 33.0884 65.6221H26.4124C26.1058 65.6221 25.9696 65.4474 25.9696 65.0631V29.2204C25.9696 28.906 26.1399 28.7662 26.4465 28.7662Z" fill="white"/>
<path fill-rule="evenodd" clip-rule="evenodd" d="M56.8633 25.7619H63.7777C63.948 25.7269 64.0843 25.8667 64.1183 26.0064V59.3339C64.1183 59.9627 64.1524 60.6614 64.1864 61.4299C64.2546 62.1636 64.2886 62.8623 64.3227 63.4561C64.3227 63.7007 64.2205 63.9103 63.9821 64.0151C62.2109 64.7837 60.3375 65.3426 58.4301 65.692C56.727 66.0064 54.9558 66.181 53.1846 66.181C50.6641 66.216 48.1436 65.692 45.8614 64.609C43.7156 63.5959 41.9444 61.919 40.7182 59.8579C39.4579 57.7269 38.8448 55.0719 38.8448 51.8928C38.8107 49.3077 39.4579 46.7575 40.7182 44.5217C42.0125 42.2509 43.8859 40.3645 46.1339 39.1068C48.5182 37.7444 51.3794 37.0806 54.7515 37.0806C54.9218 37.0806 55.1602 37.0806 55.4667 37.1156C55.7733 37.1505 56.1139 37.1505 56.5226 37.1854V26.1461C56.5226 25.9016 56.6248 25.7619 56.8633 25.7619ZM50.63 44.4867C51.8222 43.8579 53.1506 43.5784 54.479 43.5784C55.1672 43.5769 55.8532 43.659 56.5226 43.823V59.1941C56.148 59.3339 55.7392 59.4037 55.2964 59.3688C54.8536 59.4037 54.3768 59.4387 53.8659 59.4387C52.9121 59.4387 51.9584 59.2989 51.0388 58.9845C50.1532 58.7051 49.3698 58.216 48.7226 57.5872C48.0414 56.8885 47.5304 56.05 47.1898 55.1068C46.7811 53.954 46.5767 52.7313 46.6108 51.5086C46.6108 49.692 46.9855 48.1898 47.7348 47.0719C48.4842 45.954 49.4719 45.0806 50.63 44.4867Z" fill="white"/>
<path d="M69.126 5.47134L91.9502 45.0055L69.126 84.5397H23.4756L0.649414 45.0055L23.4756 5.47134H69.126Z" stroke="white"/>
<path d="M59.6115 90.429L57.3191 86.4585L55.4881 86.4591L57.7876 90.4419L59.6115 90.429Z" fill="url(#paint0_linear_283_1777)"/>
<path d="M62.0429 90.4118L59.76 86.4577L57.9335 86.4583L60.2235 90.4247L62.0429 90.4118Z" fill="url(#paint1_linear_283_1777)"/>
<path d="M64.5072 90.3944L62.2339 86.4569L60.3909 86.4575L62.6713 90.4074L64.5072 90.3944Z" fill="url(#paint2_linear_283_1777)"/>
<path d="M66.9551 90.3771L64.6913 86.4561L62.8482 86.4567L65.1192 90.3901L66.9551 90.3771Z" fill="url(#paint3_linear_283_1777)"/>
<path d="M96.9622 45.3882L71.5099 0.751986L49.802 0.751984V4.49349L36.5715 4.49349L37.0107 3.4292L32.4239 3.4292L30.8287 7.68634L35.6143 7.68634L36.1376 6.28149L49.802 6.28149V8.11887L66.4234 8.11887L88.1406 45.3882L80.5286 58.6664L82.72 60.2232L79.4763 65.78L77.7053 63.5911L77.3863 63.1968L78.3346 61.1143L73.3894 62.1274L75.7174 67.0588L66.9551 82.3435H63.3452L64.3166 84.2438L46.9734 84.2436L45.3428 81.4194L42.2705 81.4194L45.4008 86.8413H48.5602L47.838 85.7412L65.2089 85.6892L67.8942 89.8063L71.5099 89.8051L89.5204 58.3753L81.3906 65.9027L84.8887 59.7224L91.188 55.4651L96.9622 45.3882Z" fill="url(#paint4_linear_283_1777)"/>
<defs>
<linearGradient id="paint0_linear_283_1777" x1="84.9935" y1="23.8328" x2="7.87026" y2="68.3599" gradientUnits="userSpaceOnUse">
<stop stop-color="#FF1CF7"/>
<stop offset="1" stop-color="#00F0FF"/>
</linearGradient>
<linearGradient id="paint1_linear_283_1777" x1="84.9935" y1="23.8328" x2="7.87026" y2="68.3599" gradientUnits="userSpaceOnUse">
<stop stop-color="#FF1CF7"/>
<stop offset="1" stop-color="#00F0FF"/>
</linearGradient>
<linearGradient id="paint2_linear_283_1777" x1="84.9935" y1="23.8328" x2="7.87026" y2="68.3599" gradientUnits="userSpaceOnUse">
<stop stop-color="#FF1CF7"/>
<stop offset="1" stop-color="#00F0FF"/>
</linearGradient>
<linearGradient id="paint3_linear_283_1777" x1="84.9935" y1="23.8328" x2="7.87026" y2="68.3599" gradientUnits="userSpaceOnUse">
<stop stop-color="#FF1CF7"/>
<stop offset="1" stop-color="#00F0FF"/>
</linearGradient>
<linearGradient id="paint4_linear_283_1777" x1="84.9935" y1="23.8328" x2="7.87026" y2="68.3599" gradientUnits="userSpaceOnUse">
<stop stop-color="#FF1CF7"/>
<stop offset="1" stop-color="#00F0FF"/>
</linearGradient>
</defs>
</svg>
