<svg width="97" height="86" viewBox="0 0 97 86" fill="none" xmlns="http://www.w3.org/2000/svg">
<path d="M22.509 65.1344V26.8651C22.509 26.6046 22.6196 26.4561 22.8777 26.4561L23.4127 26.4551L23.8266 26.4516L24.1186 26.446L24.4296 26.438L24.7638 26.4261L24.9417 26.4188C25.2735 26.4049 25.6104 26.3961 25.9542 26.3888L27.0099 26.3665C27.1298 26.3637 27.2511 26.3606 27.3731 26.3567L27.7428 26.3445C28.0745 26.332 28.4146 26.3236 28.7629 26.3167L29.8317 26.2975L30.5715 26.2811L30.9499 26.2699C31.7115 26.2455 32.4568 26.2372 33.1967 26.2344L34.3038 26.233C37.3264 26.233 39.8327 26.6046 41.897 27.3857C43.7473 28.0197 45.4345 29.0615 46.836 30.4354C48.0238 31.6377 48.9415 33.0836 49.5269 34.6752C50.0797 36.2372 50.3745 37.8365 50.3745 39.5101C50.3745 42.7084 49.6374 45.3488 48.163 47.4317C46.6885 49.5143 44.6245 51.0763 42.2288 51.9689C39.8057 52.8677 37.1419 53.2101 34.2368 53.2321H33.1832L32.773 53.2279L32.5101 53.2216L32.3552 53.215L32.2163 53.2066L32.0923 53.1961C32.0127 53.1883 31.933 53.1823 31.8532 53.178L31.6735 53.17L31.4765 53.1648L31.1479 53.1602L30.5076 53.1588V65.0971C30.5442 65.3575 30.36 65.5807 30.1019 65.618H22.9513C22.6566 65.618 22.509 65.4691 22.509 65.1344ZM30.5442 33.6337V46.1298L30.9775 46.1612C31.3117 46.187 31.6466 46.2014 31.9817 46.2044H33.9355C35.373 46.2044 36.8105 45.9813 38.174 45.535C39.3538 45.2003 40.3856 44.4935 41.1966 43.5636C41.9706 42.6341 42.3393 41.3695 42.3393 39.7332C42.374 38.5709 42.0799 37.4227 41.4913 36.423C40.8911 35.4966 40.0535 34.7749 39.0441 34.3561L38.9114 34.3031C37.5475 33.7453 36.0731 33.5221 34.562 33.5594L33.7098 33.5605L33.3093 33.5629L32.9268 33.5681L32.5636 33.5765C32.3867 33.5814 32.217 33.588 32.0557 33.5967C31.9764 33.5927 31.8972 33.5895 31.8179 33.587L31.5971 33.5821C31.5625 33.5817 31.528 33.5815 31.4934 33.5814L31.2979 33.5824L31.1202 33.5873L31.038 33.5908L30.887 33.5995L30.7543 33.61L30.6945 33.6156L30.5898 33.6278L30.5442 33.6337ZM55.5347 35.7909H61.9851C62.3331 35.7909 62.6157 36.0231 62.7391 36.331L62.7592 36.386C62.8697 36.6835 62.9433 36.9809 62.9803 37.3156C63.0539 37.6876 63.1279 38.0966 63.1645 38.4686L63.1956 38.8284C63.2198 39.1356 63.2384 39.4623 63.2384 39.8075C64.294 38.5639 65.5599 37.5193 66.9773 36.7222L67.1822 36.6092C68.8779 35.642 70.8313 35.1588 72.7847 35.1588C73.0428 35.1214 73.264 35.3073 73.301 35.5677V42.9688C73.301 43.2662 73.1164 43.3778 72.7111 43.3778C71.4726 43.3429 70.2024 43.4381 68.9895 43.6926L68.7303 43.7498C67.6615 43.973 66.6294 44.3077 65.6342 44.754C64.9337 45.0887 64.2703 45.535 63.7544 46.1298V65.0971C63.7544 65.4691 63.6068 65.618 63.2751 65.618H56.0139C55.7192 65.6549 55.4611 65.4691 55.4241 65.1717V44.4192C55.4241 43.5267 55.4241 42.5968 55.3875 41.6299L55.3653 40.9047L55.3356 39.4543C55.3297 39.2123 55.3228 38.9707 55.3135 38.7291C55.3135 37.8734 55.2399 37.0555 55.1663 36.1999C55.1293 36.014 55.2399 35.8282 55.4241 35.7909C55.4241 35.7591 55.4783 35.7546 55.517 35.7769L55.5347 35.7909Z" fill="white"/>
<path d="M69.1035 5.47131L91.9277 45.0055L69.1035 84.5397H23.4531L0.626953 45.0055L23.4531 5.47131H69.1035Z" stroke="white"/>
<path d="M80.2363 35.4345L84.821 35.4345L85.736 37.0205H81.1371L80.2363 35.4345Z" fill="url(#paint0_linear_283_1783)"/>
<path d="M79.0355 33.3202L83.6013 33.3202L84.514 34.9023H79.9574L79.0355 33.3202Z" fill="url(#paint1_linear_283_1783)"/>
<path d="M77.8184 31.1773L82.3651 31.1773L83.286 32.7738H78.7251L77.8184 31.1773Z" fill="url(#paint2_linear_283_1783)"/>
<path d="M76.6095 29.0488L81.1371 29.0488L82.0581 30.6452L77.5162 30.6452L76.6095 29.0488Z" fill="url(#paint3_linear_283_1783)"/>
<path d="M86.5683 27.6694L71.2195 0.751986L49.5116 0.751984V4.49349L36.2811 4.49349L36.7202 3.4292L32.1335 3.4292L30.5383 7.68634L35.3239 7.68634L35.8472 6.28149L49.5116 6.28149V8.11887L66.1329 8.11887L77.5247 27.6694H81.1371L90.0251 42.7275H88.9617L90.291 45.3882H96.6718L95.0766 42.7275H91.7544L82.9935 27.6694H86.5683Z" fill="url(#paint4_linear_283_1783)"/>
<defs>
<linearGradient id="paint0_linear_283_1783" x1="126.357" y1="-19.7236" x2="126.357" y2="69.3307" gradientUnits="userSpaceOnUse">
<stop stop-color="#FF1CF7"/>
<stop offset="1" stop-color="#00F0FF"/>
</linearGradient>
<linearGradient id="paint1_linear_283_1783" x1="126.357" y1="-19.7236" x2="126.357" y2="69.3307" gradientUnits="userSpaceOnUse">
<stop stop-color="#FF1CF7"/>
<stop offset="1" stop-color="#00F0FF"/>
</linearGradient>
<linearGradient id="paint2_linear_283_1783" x1="126.357" y1="-19.7236" x2="126.357" y2="69.3307" gradientUnits="userSpaceOnUse">
<stop stop-color="#FF1CF7"/>
<stop offset="1" stop-color="#00F0FF"/>
</linearGradient>
<linearGradient id="paint3_linear_283_1783" x1="126.357" y1="-19.7236" x2="126.357" y2="69.3307" gradientUnits="userSpaceOnUse">
<stop stop-color="#FF1CF7"/>
<stop offset="1" stop-color="#00F0FF"/>
</linearGradient>
<linearGradient id="paint4_linear_283_1783" x1="126.357" y1="-19.7236" x2="126.357" y2="69.3307" gradientUnits="userSpaceOnUse">
<stop stop-color="#FF1CF7"/>
<stop offset="1" stop-color="#00F0FF"/>
</linearGradient>
</defs>
</svg>
