<svg width="103" height="90" viewBox="0 0 103 90" fill="none" xmlns="http://www.w3.org/2000/svg">
<path d="M26.743 62.7801V27.6356C26.743 27.3965 26.8455 27.2601 27.0847 27.2601C27.6652 27.2601 28.2118 27.2601 28.9972 27.2258C29.8169 27.1915 30.6709 27.1915 31.593 27.1576C32.5152 27.1233 33.5055 27.1233 34.5644 27.0891C35.623 27.0551 36.6476 27.0551 37.6722 27.0551C40.473 27.0551 42.7953 27.3965 44.7082 28.1137C46.4227 28.696 47.986 29.6527 49.2847 30.9144C50.3852 32.0186 51.2355 33.3465 51.778 34.808C52.2904 36.2425 52.5635 37.7112 52.5635 39.2481C52.5635 42.1853 51.8805 44.6101 50.5142 46.5229C49.148 48.4354 47.2355 49.8699 45.0155 50.6896C42.6929 51.5436 40.1313 51.8509 37.3309 51.8509C36.5112 51.8509 35.9646 51.8509 35.623 51.8167C35.2817 51.7824 34.8033 51.7824 34.1546 51.7824V62.7459C34.1885 62.985 34.0178 63.19 33.7787 63.2242H27.1529C26.8798 63.2242 26.743 63.0875 26.743 62.7801ZM34.1885 33.8516V45.3273C34.6669 45.3616 35.1107 45.3958 35.5205 45.3958H37.3309C38.6629 45.3958 39.9949 45.1909 41.2584 44.7811C42.3515 44.4737 43.3076 43.8246 44.0591 42.9707C44.7764 42.117 45.118 40.9557 45.118 39.453C45.1501 38.3857 44.8775 37.3312 44.3323 36.4131C43.7517 35.5252 42.932 34.8422 41.9417 34.4663C40.6779 33.954 39.3116 33.7491 37.9114 33.7834C37.0235 33.7834 36.2378 33.7834 35.589 33.8176C34.9057 33.7834 34.4277 33.8176 34.1885 33.8516ZM73.8756 43.2441C72.851 42.6976 71.7581 42.322 70.5968 42.0828C69.333 41.8097 68.0695 41.6387 66.7714 41.6387C66.0885 41.6047 65.3712 41.7072 64.7222 41.8779C64.2784 41.9803 63.9025 42.2195 63.6636 42.5608C63.4927 42.8343 63.3902 43.1756 63.3902 43.483C63.3902 43.7904 63.5269 44.0978 63.7318 44.3712C64.0392 44.7468 64.4491 45.0542 64.8932 45.2934C65.685 45.7035 66.494 46.0795 67.318 46.4205C69.1623 47.0352 70.9384 47.8889 72.5778 48.9135C73.7049 49.6307 74.6271 50.5871 75.2758 51.7485C75.8224 52.8413 76.0955 54.0366 76.0616 55.2661C76.0955 56.8716 75.6174 58.4767 74.7295 59.8087C73.7769 61.1721 72.4476 62.2283 70.9042 62.8483C69.2305 63.5656 67.1813 63.9415 64.7222 63.9415C63.1513 63.9415 61.6144 63.8047 60.0775 63.4974C58.8729 63.2893 57.7014 62.9218 56.5938 62.4045C56.3546 62.2678 56.1839 62.0286 56.2179 61.7555V55.8127C56.2179 55.7102 56.2521 55.5735 56.3546 55.5053C56.457 55.4371 56.5595 55.4711 56.662 55.5396C57.994 56.325 59.3942 56.8716 60.8972 57.2129C62.1949 57.5546 63.5612 57.7252 64.9271 57.7252C66.2252 57.7252 67.1473 57.5546 67.7621 57.2472C68.3084 57.008 68.6843 56.4275 68.6843 55.8127C68.6843 55.3347 68.4108 54.8905 67.8646 54.4464C67.318 54.0026 66.1909 53.4903 64.5173 52.8413C62.8005 52.2364 61.1702 51.4097 59.6676 50.3822C58.5974 49.6194 57.7106 48.6276 57.0718 47.479C56.5252 46.3862 56.2521 45.1909 56.2864 43.9953C56.2864 42.5269 56.6962 41.1264 57.4474 39.8629C58.3014 38.4966 59.5652 37.4038 61.0336 36.7205C62.639 35.9008 64.654 35.5252 67.0788 35.5252C68.4794 35.5252 69.9138 35.6277 71.314 35.8326C72.3387 35.9693 73.329 36.2425 74.2512 36.618C74.3879 36.6523 74.5246 36.789 74.5928 36.9254C74.6271 37.0621 74.661 37.1989 74.661 37.3353V42.9025C74.661 43.0392 74.5928 43.1756 74.4904 43.2441C74.183 43.3123 74.0123 43.3123 73.8756 43.2441Z" fill="white"/>
<path d="M74.4542 5.15643L97.2784 44.6906L74.4542 84.2248H28.8038L5.97766 44.6906L28.8038 5.15643H74.4542Z" stroke="white"/>
<path d="M5.2635 33.8962L9.84823 33.8962L10.7632 32.3102L6.16428 32.3102L5.2635 33.8962Z" fill="url(#paint0_linear_283_1763)"/>
<path d="M4.06268 36.0105L8.62849 36.0105L9.54123 34.4284L4.96127 34.4284L4.06268 36.0105Z" fill="url(#paint1_linear_283_1763)"/>
<path d="M2.84562 38.1534L7.39226 38.1534L8.31324 36.557L3.75233 36.557L2.84562 38.1534Z" fill="url(#paint2_linear_283_1763)"/>
<path d="M1.63669 40.282L6.16428 40.282L7.08527 38.6855L2.5434 38.6855L1.63669 40.282Z" fill="url(#paint3_linear_283_1763)"/>
<path d="M76.5701 89.0543L26.7291 89.0543L21.2442 78.4824L20.3549 71.0187L16.7516 64.899L19.5557 75.5557L0.74506 44.7932L2.55189 41.6613L6.32275 41.5159L14.9632 26.4462L13.8998 26.4462L15.2291 23.7855L21.6099 23.7855L20.0147 26.4462L16.6925 26.4462L8.02074 41.4659L10.4944 41.4273L8.73371 44.4792L17.5145 59.8575L24.0217 59.8575L22.4265 64.6467L21.0971 62.7842L17.815 63.3026L21.0054 68.8901L22.774 68.3717L29.6441 81.5915L72.0153 81.5915L93.2008 44.6362L71.4836 7.3669L54.8622 7.3669L54.8622 5.52952L41.1978 5.52952L40.6746 6.93437L35.889 6.93437L37.4842 2.67723L42.0709 2.67723L41.6317 3.74153L54.8622 3.74153L54.8622 1.87653e-05L76.5701 2.06631e-05L102.022 44.6362L76.5701 89.0543Z" fill="url(#paint4_linear_283_1763)"/>
<defs>
<linearGradient id="paint0_linear_283_1763" x1="51.3838" y1="89.0543" x2="51.3838" y2="1.08318e-05" gradientUnits="userSpaceOnUse">
<stop stop-color="#FF1CF7"/>
<stop offset="1" stop-color="#00F0FF"/>
</linearGradient>
<linearGradient id="paint1_linear_283_1763" x1="51.3838" y1="89.0543" x2="51.3838" y2="1.08318e-05" gradientUnits="userSpaceOnUse">
<stop stop-color="#FF1CF7"/>
<stop offset="1" stop-color="#00F0FF"/>
</linearGradient>
<linearGradient id="paint2_linear_283_1763" x1="51.3838" y1="89.0543" x2="51.3838" y2="1.08318e-05" gradientUnits="userSpaceOnUse">
<stop stop-color="#FF1CF7"/>
<stop offset="1" stop-color="#00F0FF"/>
</linearGradient>
<linearGradient id="paint3_linear_283_1763" x1="51.3838" y1="89.0543" x2="51.3838" y2="1.08318e-05" gradientUnits="userSpaceOnUse">
<stop stop-color="#FF1CF7"/>
<stop offset="1" stop-color="#00F0FF"/>
</linearGradient>
<linearGradient id="paint4_linear_283_1763" x1="51.3838" y1="89.0543" x2="51.3838" y2="1.08318e-05" gradientUnits="userSpaceOnUse">
<stop stop-color="#FF1CF7"/>
<stop offset="1" stop-color="#00F0FF"/>
</linearGradient>
</defs>
</svg>
