<svg width="98" height="91" viewBox="0 0 98 91" fill="none" xmlns="http://www.w3.org/2000/svg">
<path d="M67.0378 27.8235L57.7245 23.3669C57.1977 23.1131 56.6045 23.0289 56.0274 23.126C55.4503 23.2231 54.918 23.4967 54.5045 23.9087L36.6658 40.0986L28.8918 34.2348C28.5417 33.9685 28.1087 33.833 27.6684 33.8517C27.2281 33.8705 26.8084 34.0424 26.4824 34.3375L23.9925 36.5946C23.7979 36.7696 23.6422 36.9831 23.5354 37.2214C23.4286 37.4597 23.3731 37.7176 23.3724 37.9785C23.3718 38.2394 23.426 38.4976 23.5315 38.7364C23.6371 38.9753 23.7917 39.1895 23.9854 39.3654L30.7281 45.4854L23.9854 51.6053C23.7917 51.7812 23.6371 51.9955 23.5315 52.2343C23.426 52.4732 23.3718 52.7314 23.3724 52.9923C23.3731 53.2532 23.4286 53.5111 23.5354 53.7494C23.6422 53.9877 23.7979 54.2012 23.9925 54.3761L26.4824 56.6333C26.8084 56.9283 27.2281 57.1002 27.6684 57.119C28.1087 57.1378 28.5417 57.0022 28.8918 56.736L36.6658 50.8651L54.513 67.0621C54.925 67.4741 55.4562 67.7477 56.0322 67.8449C56.6082 67.942 57.2003 67.8577 57.7259 67.6038L67.0477 63.1402C67.5277 62.9108 67.9326 62.5509 68.2155 62.1022C68.4985 61.6534 68.6478 61.1341 68.6464 60.6044V30.3565C68.6464 29.2786 68.0196 28.2893 67.0406 27.8207L67.0378 27.8235ZM57.3326 55.7115L43.7891 45.4868L57.3326 35.262V55.7115Z" fill="white"/>
<path d="M69.9253 5.22333L92.7495 44.7575L69.9253 84.2917H24.2749L1.44873 44.7575L24.2749 5.22333H69.9253Z" stroke="white"/>
<path d="M60.4108 90.181L58.1184 86.2105L56.2874 86.2112L58.5869 90.1939L60.4108 90.181Z" fill="url(#paint0_linear_283_1810)"/>
<path d="M62.8422 90.1638L60.5593 86.2097L58.7328 86.2103L61.0228 90.1767L62.8422 90.1638Z" fill="url(#paint1_linear_283_1810)"/>
<path d="M65.3065 90.1464L63.0332 86.2089L61.1902 86.2095L63.4706 90.1594L65.3065 90.1464Z" fill="url(#paint2_linear_283_1810)"/>
<path d="M67.7544 90.1291L65.4906 86.2081L63.6476 86.2087L65.9185 90.1421L67.7544 90.1291Z" fill="url(#paint3_linear_283_1810)"/>
<path d="M97.7615 45.1402L72.3092 0.504L50.6013 0.503998V4.24551L37.3708 4.24551L37.81 3.18122L33.2233 3.18122L31.6281 7.43836L36.4137 7.43836L36.9369 6.0335L50.6013 6.0335V7.87089L67.2227 7.87089L88.9399 45.1402L81.3279 58.4184L83.5193 59.9753L80.2756 65.532L78.5046 63.3431L78.1856 62.9488L79.1339 60.8663L74.1887 61.8794L76.5167 66.8108L67.7544 82.0955H64.1445L65.1159 83.9958L47.7727 83.9956L46.1421 81.1714L43.0698 81.1714L46.2001 86.5933H49.3595L48.6373 85.4932L66.0082 85.4412L68.6935 89.5583L72.3092 89.5571L90.3197 58.1273L82.1899 65.6547L85.688 59.4744L91.9873 55.2171L97.7615 45.1402Z" fill="url(#paint4_linear_283_1810)"/>
<defs>
<linearGradient id="paint0_linear_283_1810" x1="85.7928" y1="23.5848" x2="8.66957" y2="68.1119" gradientUnits="userSpaceOnUse">
<stop stop-color="#FF1CF7"/>
<stop offset="1" stop-color="#00F0FF"/>
</linearGradient>
<linearGradient id="paint1_linear_283_1810" x1="85.7928" y1="23.5848" x2="8.66957" y2="68.1119" gradientUnits="userSpaceOnUse">
<stop stop-color="#FF1CF7"/>
<stop offset="1" stop-color="#00F0FF"/>
</linearGradient>
<linearGradient id="paint2_linear_283_1810" x1="85.7928" y1="23.5848" x2="8.66957" y2="68.1119" gradientUnits="userSpaceOnUse">
<stop stop-color="#FF1CF7"/>
<stop offset="1" stop-color="#00F0FF"/>
</linearGradient>
<linearGradient id="paint3_linear_283_1810" x1="85.7928" y1="23.5848" x2="8.66957" y2="68.1119" gradientUnits="userSpaceOnUse">
<stop stop-color="#FF1CF7"/>
<stop offset="1" stop-color="#00F0FF"/>
</linearGradient>
<linearGradient id="paint4_linear_283_1810" x1="85.7928" y1="23.5848" x2="8.66957" y2="68.1119" gradientUnits="userSpaceOnUse">
<stop stop-color="#FF1CF7"/>
<stop offset="1" stop-color="#00F0FF"/>
</linearGradient>
</defs>
</svg>
