<svg width="98" height="90" viewBox="0 0 98 90" fill="none" xmlns="http://www.w3.org/2000/svg">
<path d="M48.6729 31.6457L40.1686 45.8102L49.2671 60.851C49.3257 60.9564 49.3419 61.0799 49.3129 61.1971C49.2988 61.247 49.2685 61.2594 49.2219 61.2613L49.1702 61.2605L49.1074 61.2589C49.0733 61.2589 49.0352 61.2605 48.9929 61.2675H42.4329L42.304 61.2653C41.9505 61.2559 41.6957 61.2049 41.5405 60.9432C40.9335 59.7499 40.3238 58.5581 39.7114 57.3676C39.1637 56.3058 38.601 55.2519 38.0235 54.2063L37.7685 53.7458C37.0778 52.5071 36.3995 51.2614 35.7339 50.0088H35.6881C35.0734 51.2483 34.4408 52.4787 33.7906 53.6996C33.1349 54.9301 32.4872 56.153 31.8474 57.3676C31.2073 58.5832 30.5519 59.7906 29.8815 60.9894C29.7737 61.2339 29.5945 61.2849 29.3451 61.2933L29.2412 61.2949H22.9775L22.9504 61.2957L22.8609 61.3037C22.8111 61.3067 22.7813 61.2959 22.7717 61.2202C22.7545 61.1077 22.779 60.9927 22.8404 60.8973L31.6645 46.2715L23.0688 31.6C22.9775 31.4775 22.9623 31.3775 23.023 31.3002C23.0568 31.2607 23.0991 31.2298 23.1468 31.2097C23.1944 31.1897 23.246 31.1811 23.2975 31.1846H29.7441C29.8847 31.1769 30.0253 31.2005 30.1557 31.2539C30.2649 31.3165 30.3589 31.4033 30.43 31.5078C30.9787 32.7383 31.5883 33.9687 32.259 35.1987C32.9244 36.4208 33.6027 37.6359 34.2936 38.8436C34.9739 40.0326 35.6069 41.2485 36.191 42.4885H36.2368C36.8355 41.2488 37.4528 40.0184 38.0885 38.7976C38.7128 37.5981 39.3531 36.3904 40.0086 35.1756C40.6557 33.9763 41.2882 32.769 41.906 31.554C41.9412 31.4401 42.004 31.337 42.0889 31.2539C42.2018 31.1963 42.3287 31.1722 42.4547 31.1846H48.4442C48.4993 31.1708 48.5573 31.1753 48.6096 31.1976C48.6618 31.2199 48.7055 31.2588 48.734 31.3083C48.7626 31.3578 48.7744 31.4153 48.7677 31.4722C48.7611 31.529 48.7363 31.5822 48.6971 31.6236L48.6732 31.6462L48.6729 31.6457ZM62.1098 61.8625L61.7945 61.866C59.6901 61.8984 57.6049 61.4571 55.6906 60.5743C53.9073 59.7415 52.4166 58.3819 51.4156 56.6755C50.4064 54.9841 49.8883 52.8762 49.8622 50.3527L49.8611 50.1471C49.844 48.0296 50.3803 45.9449 51.4159 44.1031C52.4524 42.2802 53.9634 40.7782 55.7854 39.76L55.9422 39.674C57.923 38.5666 60.3159 38.0129 63.1204 38.0129L63.2429 38.0142L63.3829 38.0188L63.54 38.0258L63.7146 38.036L64.008 38.0569L64.3403 38.0838L64.5833 38.1053V29.016C64.5833 28.8011 64.6749 28.6931 64.8576 28.6931H70.6186C70.6559 28.6877 70.6939 28.6911 70.7296 28.7031C70.7653 28.7151 70.7977 28.7354 70.8243 28.7622C70.8509 28.7891 70.871 28.8218 70.8829 28.8578C70.8948 28.8939 70.8982 28.9322 70.8928 28.9698V56.2374C70.8928 56.6952 70.9104 57.1884 70.9456 57.7161L71.0308 58.9129L71.076 59.6053C71.0816 59.7011 71.0585 59.7965 71.0095 59.8789C70.9605 59.9612 70.888 60.0267 70.8015 60.0668C69.3153 60.6922 67.7673 61.1561 66.1837 61.4507C64.8393 61.7011 63.4767 61.8388 62.1098 61.8625ZM64.5833 56.1449V43.5494C64.3363 43.4819 64.0839 43.4356 63.8291 43.411C63.5176 43.3794 63.2047 43.364 62.8917 43.3648C61.7822 43.3538 60.6858 43.6067 59.6913 44.1031C58.7226 44.589 57.8955 45.3203 57.2909 46.2255C56.6874 47.1164 56.3751 48.2797 56.3546 49.7154L56.3535 49.8704C56.3313 50.8761 56.494 51.8772 56.8335 52.823C57.1099 53.5852 57.5468 54.2779 58.1141 54.8532C58.657 55.3825 59.3143 55.7773 60.0342 56.0066C60.7946 56.2551 61.5895 56.3798 62.3888 56.376C62.8153 56.376 63.2114 56.3604 63.5775 56.3295C63.8695 56.3074 64.1589 56.2588 64.4422 56.1844L64.5833 56.1449Z" fill="white"/>
<path d="M70.0151 5.47134L92.8394 45.0055L70.0151 84.5397H24.3647L1.53857 45.0055L24.3647 5.47134H70.0151Z" stroke="white"/>
<path d="M72.3988 0.751986L97.8511 45.3882L92.0769 55.4651L85.7776 59.7224L82.2795 65.9027L90.4093 58.3753L72.3988 89.8062H72.393L69.9151 85.7412H58.4226L59.1448 86.8413H55.9854L52.8551 81.4194L55.9274 81.4194L57.558 84.2436H69.0023L67.844 82.3435L76.6063 67.0588L74.2783 62.1274L79.2235 61.1143L78.2752 63.1968L78.5942 63.5911L80.3652 65.7799L83.6089 60.2232L81.4175 58.6664L89.0295 45.3882L67.3123 8.11887L50.6909 8.11887V6.28149L37.0265 6.28149L36.5033 7.68634L31.7177 7.68634L33.3129 3.4292L37.8996 3.4292L37.4604 4.49349L50.6909 4.49349V0.751984L72.3988 0.751986Z" fill="url(#paint0_linear_283_1790)"/>
<defs>
<linearGradient id="paint0_linear_283_1790" x1="85.8824" y1="23.8328" x2="8.75917" y2="68.3599" gradientUnits="userSpaceOnUse">
<stop stop-color="#FF1CF7"/>
<stop offset="1" stop-color="#00F0FF"/>
</linearGradient>
</defs>
</svg>
