<svg width="96" height="68" viewBox="0 0 96 68" fill="none" xmlns="http://www.w3.org/2000/svg">
  <path fill-rule="evenodd" clip-rule="evenodd"
    d="M33.115 68C26.2593 68 20.347 66.7549 15.3782 64.2648C10.4094 61.7746 6.60414 58.0075 3.96248 52.9634C1.32083 47.9192 0 41.5981 0 34C0 26.2742 1.32083 19.9211 3.96248 14.9408C6.60414 9.89671 10.4094 6.1615 15.3782 3.73521C20.347 1.24507 26.2593 0 33.115 0C33.4375 0 63.4334 0.0026555 63.7515 0.0079689C70.319 0.117682 75.9425 1.3601 80.6218 3.73521C85.5906 6.1615 89.3959 9.89671 92.0375 14.9408C94.6792 19.9211 96 26.2742 96 34C96 41.5981 94.6792 47.9192 92.0375 52.9634C89.3959 58.0075 85.5906 61.7746 80.6218 64.2648C75.9425 66.6399 70.319 67.8823 63.7515 67.992C63.4334 67.9973 33.4375 68 33.115 68ZM76.7537 50.9521C75.1813 52.7399 73.2314 54.0807 70.9043 54.9746C68.8221 55.7744 66.4378 56.2164 63.7515 56.3006C63.4354 56.3105 33.4395 56.3155 33.115 56.3155C30.096 56.3155 27.4229 55.8685 25.0957 54.9746C22.7685 54.0807 20.8188 52.7399 19.2463 50.9521C17.6739 49.1643 16.4789 46.9934 15.6612 44.4394C14.9065 41.8216 14.5291 38.8526 14.5291 35.5324V32.5634C14.5291 29.1793 14.9065 26.1784 15.6612 23.5606C16.4789 20.9427 17.6739 18.7718 19.2463 17.0479C20.8188 15.2601 22.7685 13.9192 25.0957 13.0253C27.4229 12.1315 30.096 11.6845 33.115 11.6845C33.4395 11.6845 63.4354 11.6895 63.7515 11.6994C66.4378 11.7836 68.8221 12.2256 70.9043 13.0253C73.2314 13.9192 75.1813 15.2601 76.7537 17.0479C78.3261 18.7718 79.5211 20.9427 80.3388 23.5606C81.1564 26.1784 81.5652 29.1793 81.5652 32.5634V35.5324C81.5652 38.8526 81.1564 41.8216 80.3388 44.4394C79.5211 46.9934 78.3261 49.1643 76.7537 50.9521Z"
    fill="white" />
</svg>