<svg width="604" height="672" viewBox="0 0 604 672" fill="white" xmlns="http://www.w3.org/2000/svg">
  <path
    d="M0.0572771 353.823L0 148.194L178.72 45.0101L182.424 51.4266L6.91075 152.759L6.18766 353.333L0.0572771 353.823Z"
  />
  <path
    d="M603.146 385.276L602.53 497.185L300.372 671.636L203.148 616.215L206.638 611.151L299.874 663.368L595.619 492.62L597.015 385.766L603.146 385.276Z"
  />
  <path d="M223.955 127.08L205.075 116.592L166.601 138.805L185.481 149.293L223.955 127.08Z"
  />
  <path
    d="M167.847 159.474L148.967 148.986L137.745 155.465L127.379 148.617L61.6524 186.564L60.4398 221.486L167.847 159.474Z"
  />
  <path d="M85.31 412.454L85.3198 401.755L52.9636 373.381L52.9538 384.081L85.31 412.454Z"
  />
  <path d="M85.3297 391.055L85.3395 380.355L52.9833 351.982L52.9735 362.681L85.3297 391.055Z"
  />
  <path d="M85.3509 367.966L85.3608 357.204L53.0044 328.932L52.9946 339.632L85.3509 367.966Z"
  />
  <path d="M85.3827 333.276L53.0265 304.902L53.0167 315.602L85.3729 343.976L85.3827 333.276Z"
  />
  <path fill-rule="evenodd" clip-rule="evenodd"
    d="M580.867 162.156L300.185 0L19.5922 162L19.6825 486.156L300.365 648.313L580.958 486.313L580.867 162.156ZM53.1385 182.924L131.69 137.573L146.865 141.644L206.18 107.399L226.414 112.827L303.362 68.4013L522.583 196.355L521.931 446.974L422.54 504.358L429.949 517.191L367.428 553.287L371.631 567.971L299.492 609.621L253.136 582.914L247.84 564.583L195.584 534.866L192.483 513.129L82.5764 450.392L85.2963 427.434L52.94 399.061L52.9538 384.081L85.31 412.454L85.3198 401.755L52.9636 373.381L52.9735 362.681L85.3297 391.055L85.3395 380.355L52.9833 351.982L52.9946 339.632L85.3509 367.966L85.3608 357.204L53.0044 328.932L53.0167 315.602L85.3729 343.976L85.3827 333.276L53.0265 304.902L53.0363 294.203L66.1005 301.632L66.2085 275.903L53.0599 268.523L53.1385 182.924Z"
  />
</svg>