<svg width="525" height="27" viewBox="0 0 525 27" fill="none" xmlns="http://www.w3.org/2000/svg">
  <path d="M95.9428 26.9389L103.47 13.9016L7.86349 13.9016L0.336426 26.9389L95.9428 26.9389Z"
    fill="url(#paint0_linear_48_128)" />
  <path
    d="M177.348 0.86438L169.821 13.9016L303.375 13.9016L295.848 26.9389H377.878L384.789 13.9016H390.448L383.591 26.9389H390.969L397.88 13.9016H403.54L396.629 26.9389H404.007L410.918 13.9016H416.577L409.666 26.9389H417.044L423.955 13.9016H429.614L422.703 26.9389H430.081L436.992 13.9016L442.651 13.9017L435.74 26.9389H443.118L450.029 13.9017L455.689 13.9016L448.778 26.9389H456.156L463.067 13.9016H468.726L461.815 26.9389H469.193L476.104 13.9016H481.763L474.852 26.9389H482.23L489.141 13.9016H494.8L487.889 26.9389H495.267L502.178 13.9016L517.144 13.9016L524.672 0.86438H177.348Z"
    fill="url(#paint1_linear_48_128)" />
  <defs>
    <linearGradient id="paint0_linear_48_128" x1="-117" y1="13.9999" x2="526" y2="14"
      gradientUnits="userSpaceOnUse">
      <stop stop-color="#00F3FF" />
      <stop offset="1" stop-color="#FF1CF7" />
    </linearGradient>
    <linearGradient id="paint1_linear_48_128" x1="-117" y1="13.9999" x2="526" y2="14"
      gradientUnits="userSpaceOnUse">
      <stop stop-color="#00F3FF" />
      <stop offset="1" stop-color="#FF1CF7" />
    </linearGradient>
  </defs>
</svg>