<svg width="23" height="40" viewBox="0 0 23 40" fill="none" xmlns="http://www.w3.org/2000/svg">
<path d="M17.2623 21.3739C17.507 20.8307 18.1851 20.3275 18.7698 20.2602C19.3546 20.1928 19.8875 19.6496 19.9539 19.0559C20.0244 18.4664 20.5179 17.7758 21.0508 17.5253C21.3193 17.3866 21.5378 17.1654 21.6752 16.8932C21.8126 16.621 21.8618 16.3117 21.816 16.0094C21.6957 15.4241 21.957 14.6136 22.3883 14.2115C22.6022 13.9948 22.7429 13.7148 22.7902 13.4118C22.8375 13.1088 22.789 12.7983 22.6516 12.5251C22.5094 12.2312 22.4355 11.9082 22.4355 11.5808C22.4355 11.2534 22.5094 10.9304 22.6516 10.6366C22.7893 10.3634 22.838 10.0529 22.7907 9.74978C22.7434 9.44669 22.6025 9.16669 22.3883 8.95017C21.957 8.54383 21.6978 7.73538 21.816 7.15219C21.8624 6.84928 21.8135 6.53921 21.6761 6.26623C21.5387 5.99325 21.3198 5.77133 21.0508 5.63212C20.7659 5.47779 20.5192 5.25987 20.3292 4.99476C20.1392 4.72965 20.0108 4.42425 19.9539 4.10153C19.9066 3.79976 19.7667 3.52086 19.554 3.30461C19.3414 3.08836 19.067 2.9458 18.7698 2.89726C18.4519 2.84052 18.1508 2.71091 17.8896 2.51829C17.6284 2.32566 17.4138 2.07509 17.2623 1.78563C17.1255 1.51258 16.9067 1.29077 16.6376 1.15225C16.3685 1.01374 16.063 0.965695 15.7652 1.01507C15.4456 1.06055 15.12 1.03147 14.8132 0.930056C14.5063 0.828639 14.2263 0.657548 13.9943 0.42978C13.5941 -0.0123455 12.8476 -0.130246 12.3354 0.162399C11.8232 0.455044 10.9834 0.455044 10.4733 0.162399C10.205 0.0207456 9.89911 -0.0301217 9.6003 0.0172228C9.30149 0.0645673 9.02541 0.207645 8.81235 0.425569C8.58056 0.653599 8.30054 0.824864 7.99364 0.926298C7.68674 1.02773 7.36107 1.05665 7.04149 1.01086C6.74409 0.962279 6.43918 1.01095 6.17081 1.14984C5.90244 1.28873 5.6845 1.51064 5.54849 1.78353C5.30173 2.3225 4.62366 2.82568 4.0389 2.89305C3.74123 2.94161 3.46626 3.0844 3.25326 3.30104C3.04026 3.51768 2.9001 3.7971 2.8528 4.09942C2.79655 4.42214 2.6685 4.72757 2.4784 4.99245C2.28831 5.25733 2.04119 5.47466 1.75586 5.62791C1.48778 5.76782 1.27007 5.99011 1.13378 6.26308C0.997494 6.53605 0.949594 6.84574 0.996916 7.14798C1.11096 7.73116 0.851763 8.54173 0.420452 8.94596C-0.0108591 9.35018 -0.131128 10.1081 0.157104 10.6323C0.445336 11.1503 0.445336 12.0029 0.157104 12.5209C0.0195468 12.7944 -0.0290656 13.1052 0.018251 13.4086C0.0655676 13.712 0.206378 13.9923 0.420452 14.2094C0.853837 14.6094 1.11096 15.4199 0.996916 16.0073C0.949549 16.309 0.99747 16.6181 1.13381 16.8905C1.27015 17.1628 1.4879 17.3843 1.75586 17.5232C2.29085 17.7737 2.78229 18.4643 2.85072 19.0538C2.92123 19.6475 3.45207 20.1907 4.03683 20.258C4.62159 20.3254 5.29966 20.8307 5.54642 21.3718C5.6835 21.6436 5.90169 21.8645 6.16983 22.0029C6.43797 22.1413 6.74232 22.1901 7.03942 22.1423C7.61588 22.0266 8.41422 22.2876 8.81028 22.7276C9.02388 22.9445 9.29962 23.0872 9.59799 23.1352C9.89635 23.1833 10.202 23.1342 10.4712 22.995C10.9814 22.7024 11.8212 22.7024 12.3333 22.995C12.8455 23.2877 13.592 23.1655 13.9922 22.7276C14.3924 22.2855 15.1866 22.0266 15.7631 22.1423C16.0609 22.191 16.3662 22.143 16.6354 22.0049C16.9047 21.8669 17.1241 21.6461 17.2623 21.3739ZM11.4044 18.7338C9.53452 18.7338 7.74125 17.9796 6.41907 16.6372C5.09689 15.2947 4.35409 13.474 4.35409 11.5755C4.35409 9.67707 5.09689 7.85635 6.41907 6.51392C7.74125 5.1715 9.53452 4.41733 11.4044 4.41733C13.2742 4.41733 15.0675 5.1715 16.3897 6.51392C17.7119 7.85635 18.4546 9.67707 18.4546 11.5755C18.4546 13.474 17.7119 15.2947 16.3897 16.6372C15.0675 17.9796 13.2742 18.7338 11.4044 18.7338ZM3.05808 22.9655L0.480586 37.8062L6.96684 36.8293L12.7336 40L15.3007 25.2183C13.2279 25.8336 11.0424 25.9504 8.91743 25.5594C6.79246 25.1684 4.78636 24.2803 3.05808 22.9655ZM19.6179 23.0666C18.9704 23.5445 18.2835 23.965 17.5651 24.3235L16.014 33.2418L23 29.3932L19.6179 23.0666Z" fill="white"/>
</svg>
