<svg width="34" height="42" viewBox="0 0 34 42" fill="none" xmlns="http://www.w3.org/2000/svg">
<path d="M10.4615 7.875V32.55C9.41538 32.025 8.10769 31.5 6.53846 31.5C2.87692 31.5 0 33.8625 0 36.75C0 39.6375 2.87692 42 6.53846 42C10.2 42 13.0769 39.6375 13.0769 36.75V17.5875L31.3846 11.55V24.9375C30.3385 24.15 29.0308 23.625 27.4615 23.625C23.8 23.625 20.9231 25.9875 20.9231 28.875C20.9231 31.7625 23.8 34.125 27.4615 34.125C31.1231 34.125 34 31.7625 34 28.875V0L10.4615 7.875Z" fill="white"/>
</svg>
