<svg width="19" height="32" viewBox="0 0 19 32" fill="none" xmlns="http://www.w3.org/2000/svg">
<path d="M14.2602 17.0991C14.4623 16.6646 15.0225 16.262 15.5055 16.2081C15.9886 16.1542 16.4288 15.7197 16.4836 15.2447C16.5419 14.7731 16.9496 14.2207 17.3898 14.0202C17.6116 13.9093 17.7921 13.7323 17.9056 13.5145C18.0191 13.2968 18.0598 13.0494 18.0219 12.8075C17.9225 12.3393 18.1384 11.6909 18.4947 11.3692C18.6714 11.1958 18.7876 10.9718 18.8267 10.7294C18.8658 10.487 18.8257 10.2387 18.7122 10.0201C18.5947 9.78499 18.5337 9.52656 18.5337 9.26465C18.5337 9.00274 18.5947 8.74431 18.7122 8.50925C18.826 8.29071 18.8662 8.04229 18.8271 7.79982C18.788 7.55735 18.6716 7.33335 18.4947 7.16013C18.1384 6.83507 17.9242 6.1883 18.0219 5.72175C18.0603 5.47942 18.0198 5.23137 17.9063 5.01298C17.7928 4.7946 17.612 4.61706 17.3898 4.5057C17.1544 4.38223 16.9506 4.2079 16.7937 3.99581C16.6367 3.78372 16.5307 3.5394 16.4836 3.28122C16.4446 3.03981 16.329 2.81669 16.1533 2.64369C15.9777 2.47069 15.751 2.35664 15.5055 2.31781C15.2428 2.27242 14.9941 2.16873 14.7783 2.01463C14.5626 1.86053 14.3853 1.66007 14.2602 1.4285C14.1472 1.21006 13.9664 1.03261 13.7441 0.921802C13.5218 0.81099 13.2694 0.772556 13.0234 0.812056C12.7594 0.848438 12.4904 0.825178 12.237 0.744045C11.9835 0.662911 11.7521 0.526038 11.5605 0.343824C11.2299 -0.00987642 10.6132 -0.104196 10.1901 0.129919C9.76702 0.364035 9.07326 0.364035 8.65187 0.129919C8.43021 0.0165965 8.17752 -0.0240974 7.93068 0.0137782C7.68384 0.0516538 7.45577 0.166116 7.27977 0.340455C7.08829 0.522879 6.85697 0.659891 6.60344 0.741038C6.34991 0.822185 6.08089 0.845323 5.81688 0.808687C5.57121 0.769823 5.31932 0.80876 5.09763 0.919871C4.87593 1.03098 4.6959 1.20851 4.58354 1.42682C4.37969 1.858 3.81955 2.26054 3.33648 2.31444C3.09058 2.35329 2.86344 2.46752 2.68748 2.64083C2.51152 2.81414 2.39574 3.03768 2.35666 3.27954C2.31019 3.53771 2.20441 3.78206 2.04738 3.99396C1.89034 4.20586 1.6862 4.37973 1.45049 4.50233C1.22904 4.61426 1.04919 4.79209 0.936601 5.01046C0.824017 5.22884 0.784447 5.47659 0.823539 5.71838C0.917753 6.18493 0.70363 6.83338 0.34733 7.15676C-0.00897058 7.48015 -0.108323 8.08649 0.129781 8.50588C0.367886 8.92021 0.367886 9.60235 0.129781 10.0167C0.0161474 10.2355 -0.0240107 10.4842 0.0150769 10.7269C0.0541646 10.9696 0.170486 11.1939 0.34733 11.3675C0.705343 11.6875 0.917753 12.3359 0.823539 12.8059C0.78441 13.0472 0.823997 13.2945 0.936624 13.5124C1.04925 13.7302 1.22914 13.9074 1.45049 14.0186C1.89244 14.219 2.29842 14.7714 2.35495 15.243C2.41319 15.718 2.85171 16.1525 3.33477 16.2064C3.81783 16.2603 4.37798 16.6646 4.58182 17.0974C4.69506 17.3149 4.87531 17.4916 5.09681 17.6023C5.31832 17.713 5.56975 17.7521 5.81517 17.7139C6.29138 17.6212 6.95088 17.8301 7.27806 18.1821C7.45451 18.3556 7.6823 18.4698 7.92877 18.5082C8.17525 18.5466 8.42777 18.5073 8.65016 18.396C9.07155 18.1619 9.76531 18.1619 10.1884 18.396C10.6115 18.6301 11.2282 18.5324 11.5588 18.1821C11.8894 17.8284 12.5455 17.6212 13.0217 17.7139C13.2677 17.7528 13.5199 17.7144 13.7423 17.604C13.9647 17.4935 14.146 17.3169 14.2602 17.0991ZM9.421 14.987C7.87634 14.987 6.39495 14.3837 5.30271 13.3097C4.21047 12.2358 3.59686 10.7792 3.59686 9.26044C3.59686 7.74166 4.21047 6.28508 5.30271 5.21114C6.39495 4.1372 7.87634 3.53386 9.421 3.53386C10.9657 3.53386 12.4471 4.1372 13.5393 5.21114C14.6315 6.28508 15.2451 7.74166 15.2451 9.26044C15.2451 10.7792 14.6315 12.2358 13.5393 13.3097C12.4471 14.3837 10.9657 14.987 9.421 14.987ZM2.52624 18.3724L0.397006 30.245L5.75522 29.4635L10.519 32L12.6397 20.1746C10.9274 20.6669 9.12199 20.7603 7.36658 20.4475C5.61116 20.1347 3.95395 19.4243 2.52624 18.3724ZM16.2061 18.4533C15.6712 18.8356 15.1038 19.172 14.5103 19.4588L13.229 26.5934L19 23.5146L16.2061 18.4533Z" fill="white"/>
</svg>
