<svg width="57" height="32" viewBox="0 0 57 32" fill="none" xmlns="http://www.w3.org/2000/svg">
<path d="M53.4375 10.662H47.0495L37.4062 1.04179C37.0766 0.71033 36.6843 0.447542 36.252 0.2687C35.8196 0.0898569 35.356 -0.00147367 34.888 1.79808e-05H9.85922C9.27406 0.00109881 8.69819 0.145958 8.18248 0.421794C7.66677 0.69763 7.2271 1.09595 6.90234 1.58155L0.298359 11.4528C0.104319 11.7453 0.000580816 12.0882 0 12.439L0 23.1011C0 24.0436 0.375334 24.9476 1.04343 25.6141C1.71153 26.2806 2.61767 26.6551 3.5625 26.6551H7.34766C7.74007 28.184 8.6314 29.5392 9.88115 30.507C11.1309 31.4747 12.6679 32 14.25 32C15.8321 32 17.3691 31.4747 18.6189 30.507C19.8686 29.5392 20.7599 28.184 21.1523 26.6551H35.8477C36.2401 28.184 37.1314 29.5392 38.3811 30.507C39.6309 31.4747 41.1679 32 42.75 32C44.3321 32 45.8691 31.4747 47.1189 30.507C48.3686 29.5392 49.2599 28.184 49.6523 26.6551H53.4375C54.3823 26.6551 55.2885 26.2806 55.9566 25.6141C56.6247 24.9476 57 24.0436 57 23.1011V14.216C57 13.2735 56.6247 12.3695 55.9566 11.703C55.2885 11.0365 54.3823 10.662 53.4375 10.662ZM9.85922 3.55402H34.888L42.013 10.662H5.12109L9.85922 3.55402ZM14.25 28.4321C13.5454 28.4321 12.8566 28.2236 12.2708 27.8331C11.6849 27.4426 11.2283 26.8875 10.9587 26.2381C10.689 25.5887 10.6185 24.8741 10.756 24.1847C10.8934 23.4953 11.2327 22.862 11.7309 22.365C12.2292 21.868 12.8639 21.5295 13.555 21.3923C14.246 21.2552 14.9623 21.3256 15.6133 21.5946C16.2643 21.8636 16.8207 22.3191 17.2121 22.9036C17.6036 23.488 17.8125 24.1751 17.8125 24.8781C17.8125 25.8206 17.4372 26.7246 16.7691 27.3911C16.101 28.0576 15.1948 28.4321 14.25 28.4321ZM42.75 28.4321C42.0454 28.4321 41.3566 28.2236 40.7708 27.8331C40.1849 27.4426 39.7283 26.8875 39.4587 26.2381C39.189 25.5887 39.1185 24.8741 39.256 24.1847C39.3934 23.4953 39.7327 22.862 40.2309 22.365C40.7292 21.868 41.3639 21.5295 42.055 21.3923C42.746 21.2552 43.4623 21.3256 44.1133 21.5946C44.7643 21.8636 45.3207 22.3191 45.7121 22.9036C46.1036 23.488 46.3125 24.1751 46.3125 24.8781C46.3125 25.8206 45.9372 26.7246 45.2691 27.3911C44.601 28.0576 43.6948 28.4321 42.75 28.4321Z" fill="white"/>
</svg>
