<svg width="33" height="34" viewBox="0 0 33 34" fill="none" xmlns="http://www.w3.org/2000/svg">
<path d="M22.1921 0.5L22.1212 9.82406L33 3.328L33 0.5H22.1921Z" fill="#001B69"/>
<path d="M22.1921 24.1759V33.5H33L33 30.6591L22.1921 24.1759Z" fill="#001B69"/>
<path d="M10.9533 33.5V24.1759L0 30.7463V33.5H10.9533Z" fill="#001B69"/>
<path d="M19.8782 0.5H13.2671V13.7H0V20.3H13.2671V33.5H19.8782V20.3H33V13.7H19.8782V0.5Z" fill="#EC1C24"/>
<path d="M22.1212 11.5438H25.7037L33 7.15475L33 4.58331L22.1212 11.1274V11.5438Z" fill="#EC1C24"/>
<path d="M30.2082 22.5876H25.9246L33 26.8318V24.2623L30.2082 22.5876Z" fill="#EC1C24"/>
<path d="M11.0241 22.5876H7.34175L0 27.0041V29.5755L11.0241 22.944V22.5876Z" fill="#EC1C24"/>
<path d="M3.22847 11.5438H7.51202L0 7.03771V9.60721L3.22847 11.5438Z" fill="#EC1C24"/>
<path d="M22.1921 33.5V24.1759L33 30.6591L33 26.8318L25.9246 22.5876H30.2082L33 24.2623L33 22.8903L32.5434 22.61H33V20.3H19.8782V33.5H22.1921Z" fill="white"/>
<path d="M10.9533 33.5H13.2671V20.3H0V22.61H0.601938L0 22.9795V27.0041L7.34175 22.5876H11.0241V22.944L0 29.5755V30.7463L10.9533 24.1759V33.5Z" fill="white"/>
<path d="M13.2671 0.5H10.9533L11.0241 9.82406L0 3.24122V7.03771L7.51202 11.5438H3.22847L0 9.60721V11.1665L0.601938 11.5438L0 11.536V13.7H13.2671V0.5Z" fill="white"/>
<path d="M22.1921 0.5H19.8782V13.7H33L33 7.15475L25.7037 11.5438H22.1212V11.1274L33 4.58331V3.328L22.1212 9.82406L22.1921 0.5Z" fill="white"/>
<path fill-rule="evenodd" clip-rule="evenodd" d="M0 22.9795V22.61H0.601938L0 22.9795Z" fill="#001B69"/>
<path fill-rule="evenodd" clip-rule="evenodd" d="M11.0241 9.82406L0 3.24122V0.5H10.9533L11.0241 9.82406ZM0 11.536V11.1665L0.601938 11.5438L0 11.536Z" fill="#001B69"/>
<path d="M33 22.8903V22.61H32.5434L33 22.8903Z" fill="#001B69"/>
</svg>
